<svg class="object-contain w-5" viewBox="0 0 16 16" fill="currentColor" xmlns="http://www.w3.org/2000/svg">
                                        <path d="M1 3.625V2.75C1 2.28587 1.18437 1.84075 1.51256 1.51256C1.84075 1.18437 2.28587 1 2.75 1H4.5" stroke="currentColor" stroke-width="2" stroke-linecap="round" stroke-linejoin="round"/>
                                        <path d="M1 12.375V13.25C1 13.7141 1.18437 14.1592 1.51256 14.4874C1.84075 14.8156 2.28587 15 2.75 15H4.5" stroke="currentColor" stroke-width="2" stroke-linecap="round" stroke-linejoin="round"/>
                                        <path d="M11.5 1H13.25C13.7141 1 14.1592 1.18437 14.4874 1.51256C14.8156 1.84075 15 2.28587 15 2.75V3.625" stroke="currentColor" stroke-width="2" stroke-linecap="round" stroke-linejoin="round"/>
                                        <path d="M11.5 15H13.25C13.7141 15 14.1592 14.8156 14.4874 14.4874C14.8156 14.1592 15 13.7141 15 13.25V12.375" stroke="currentColor" stroke-width="2" stroke-linecap="round" stroke-linejoin="round"/>
                                        <path d="M1.875 7.125H2.75V8.875H1.875V7.125Z" stroke="currentColor" stroke-width="2" stroke-linecap="round" stroke-linejoin="round"/>
                                        <path d="M6.25 7.125V8.875" stroke="currentColor" stroke-width="2" stroke-linecap="round" stroke-linejoin="round"/>
                                        <path d="M9.75 7.125H10.625V8.875H9.75V7.125Z" stroke="currentColor" stroke-width="2" stroke-linecap="round" stroke-linejoin="round"/>
                                        <path d="M14.125 7.125V8.875" stroke="currentColor" stroke-width="2" stroke-linecap="round" stroke-linejoin="round"/>
                                    </svg>